<svg width="1920" height="1080" viewBox="0 0 1920 1080" fill="none" xmlns="http://www.w3.org/2000/svg">
  <defs>
    <linearGradient id="g1" x1="0" y1="0" x2="1920" y2="1080" gradientUnits="userSpaceOnUse">
      <stop stop-color="#060816"/>
      <stop offset="0.52" stop-color="#101328"/>
      <stop offset="1" stop-color="#220A3C"/>
    </linearGradient>
    <radialGradient id="g2" cx="0" cy="0" r="1" gradientUnits="userSpaceOnUse" gradientTransform="translate(1590 270) rotate(90) scale(460 760)">
      <stop stop-color="#8B5CF6" stop-opacity="0.6"/>
      <stop offset="1" stop-color="#8B5CF6" stop-opacity="0"/>
    </radialGradient>
  </defs>
  <rect width="1920" height="1080" fill="url(#g1)"/>
  <rect width="1920" height="1080" fill="url(#g2)"/>
  <g opacity="0.18" fill="#8B5CF6">
    <circle cx="90" cy="80" r="3"/>
    <circle cx="130" cy="80" r="3"/>
    <circle cx="170" cy="80" r="3"/>
    <circle cx="210" cy="80" r="3"/>
    <circle cx="250" cy="80" r="3"/>
    <circle cx="90" cy="120" r="3"/>
    <circle cx="130" cy="120" r="3"/>
    <circle cx="170" cy="120" r="3"/>
    <circle cx="210" cy="120" r="3"/>
    <circle cx="250" cy="120" r="3"/>
  </g>
  <g opacity="0.35" transform="translate(1260 250)">
    <path d="M200 0H500C650 0 760 118 760 264V460H0V180C0 80 80 0 180 0H200Z" fill="#181028"/>
    <path d="M120 120H500C595 120 670 195 670 290V430H60V205C60 160 96 120 120 120Z" fill="#26153D"/>
    <path d="M0 465L760 465V520H0V465Z" fill="#0B1021"/>
    <circle cx="160" cy="330" r="38" fill="#111827" stroke="#C4B5FD" stroke-width="5"/>
    <circle cx="580" cy="330" r="38" fill="#111827" stroke="#C4B5FD" stroke-width="5"/>
    <path d="M160 292L230 225H505L580 292" stroke="#A855F7" stroke-width="10" stroke-linecap="round" stroke-linejoin="round"/>
    <rect x="250" y="180" width="190" height="40" rx="20" fill="#7C3AED"/>
    <rect x="145" y="120" width="460" height="240" rx="72" stroke="#7C3AED" stroke-width="6" opacity="0.45"/>
  </g>
  <g opacity="0.18">
    <path d="M0 860L420 600L720 650" stroke="#A855F7" stroke-width="3"/>
    <path d="M210 1080L500 760L940 650" stroke="#A855F7" stroke-width="3"/>
  </g>
</svg>
